<?xml version="1.0" encoding="utf-8"?>
<!-- Generator: Adobe Illustrator 25.0.0, SVG Export Plug-In . SVG Version: 6.00 Build 0)  -->
<svg version="1.1" id="Capa_1" xmlns="http://www.w3.org/2000/svg" xmlns:xlink="http://www.w3.org/1999/xlink" x="0px" y="0px"
	 viewBox="0 0 1133.86 836.22" style="enable-background:new 0 0 1133.86 836.22;" xml:space="preserve">
<style type="text/css">
	.st0{fill:#FFFFFF;stroke:#000000;stroke-width:5;stroke-miterlimit:10;}
	.st1{stroke:#000000;stroke-width:5;stroke-miterlimit:10;}
	.st2{fill:#FFFFFF;stroke:#FFFFFF;stroke-width:5;stroke-miterlimit:10;}
	.st3{fill:none;stroke:#000000;stroke-width:5;stroke-linecap:round;stroke-miterlimit:10;}
	.st4{stroke:#000000;stroke-width:4;stroke-linejoin:round;stroke-miterlimit:10;}
	.st5{fill:#3C3C3B;stroke:#3C3C3B;stroke-width:4;stroke-linejoin:round;stroke-miterlimit:10;}
</style>
<path id="pantalla1_1_" class="st0" d="M930.74,603.19h-727.8c-23.69,0-42.89-19.2-42.89-42.89V44.35
	c0-23.69,19.2-42.89,42.89-42.89h727.8c23.69,0,42.89,19.2,42.89,42.89V560.3C973.63,583.99,954.43,603.19,930.74,603.19z"/>
<path class="st1" d="M929.29,529.6c0,11.76-9.52,21.3-21.28,21.3l-676.88,0.43c-11.76,0-21.29-9.52-21.3-21.28l-0.28-459.52
	c-0.01-11.76,9.52-21.29,21.27-21.3l676.89-0.42C919.46,48.81,929,58.34,929,70.09L929.29,529.6z"/>
<path id="cactus_ext_1_" class="st2" d="M499.99,551.27c0.76,0,1.53,0,2.29,0c1.19,0,2.38,0,3.58,0c1.67,0,3.33,0,5,0
	c2.08,0,4.15,0,6.23,0c2.42,0,4.85,0,7.27,0c2.71,0,5.41,0,8.12,0c2.93,0,5.85,0,8.78,0c3.08,0,6.17,0,9.25,0c3.18,0,6.36,0,9.53,0
	c3.21,0,6.42,0,9.63,0c3.18,0,6.35,0,9.53,0c3.08,0,6.16,0,9.24,0c2.92,0,5.84,0,8.76,0c2.7,0,5.39,0,8.09,0c2.41,0,4.82,0,7.23,0
	c2.06,0,4.12,0,6.18,0c1.65,0,3.3,0,4.94,0c1.17,0,2.34,0,3.52,0c0.63,0,1.26,0,1.9,0c0.09,0,0.19,0,0.28,0V422.92
	c0,0,41.85,1.99,78.51-28.69c6.36-5.32,10.72-12.69,13.95-20.22c3.88-9.05,6.3-18.69,8.06-28.36c1.9-10.46,2.99-21.06,3.62-31.67
	c0.6-10.04,0.77-20.11,0.64-30.16c-0.11-8.14-0.2-16.39-0.98-24.5c-0.45-4.67-0.17-9.45-1.41-14.02
	c-2.66-9.78-9.82-20.03-18.32-25.57c-5.45-3.54-11.83-5.2-18.32-4.83c-8.2,0.48-16.59,2.37-23.25,7.41
	c-5.45,4.13-9.11,9.98-11.84,16.15c-1.89,4.26-3.85,8.75-4.73,13.34c-0.24,1.28-0.39,2.59-0.54,3.89c0,2.95-0.69,6.07-1.02,9.01
	c-0.28,2.46-0.55,4.92-0.83,7.39c-0.5,4.45-1,8.9-1.5,13.35c-0.95,8.45-1.9,16.89-2.85,25.34c0,2.14-0.61,4.31-0.75,6.44
	c-0.16,2.35-0.21,4.81-1.42,6.9c-3.11,5.35-10.89,5.45-16.23,4.76c-0.07-7.65-0.14-15.3-0.2-22.96
	c-0.15-16.35-0.29-32.71-0.44-49.06c-0.07-8.35-0.15-16.7-0.22-25.05c-0.09-9.87,0.32-19.8-0.23-29.67
	c-0.84-15.01-5.71-30.04-14.19-42.53c-8.38-12.34-20.76-21.16-35.61-23.64c-4.05-0.68-8.17-0.9-12.27-0.77
	c-20.64,0.68-39.44,9.81-50.94,27.21c-11.95,18.08-11.33,39.08-11.54,59.83c-0.15,15.13-0.77,30.27-1.13,45.4
	c-0.73,31.05-1.46,62.1-2.2,93.15c-0.18,7.83-0.37,15.66-0.55,23.49c-0.02,1.01-6.25,0.26-6.71,0.14
	c-6.18-1.59-9.83-7.4-12.08-12.96c-3.9-9.62-5.01-20.55-7.03-30.68c-1.96-7.86-3.19-15.98-4.78-23.92
	c-1.39-6.96-2.33-13.82-7.44-19.17c-8.74-9.15-22.85-9.33-34.48-7.47c-31.22,5-35.94,38.19-36.02,64.41
	c-0.08,27.56,2.68,56.25,17.41,80.29c9.48,15.47,23.73,27.15,40.93,33.04c0,0,18.78,7.52,52.85,9.91l-0.42,73.38"/>
<g id="cactus_int_1_">
	<path class="st3" d="M548.15,162.28c-13.59,22.74-11.44,49.27-11.35,74.64c0.06,15.89,0.11,31.78,0.16,47.67
		c0.14,39.48,0.27,78.96,0.41,118.44c0.11,31.8,0.22,63.6,0.33,95.4c0.02,6.44,0.04,12.87,0.07,19.31"/>
	<line class="st3" x1="568.72" y1="161.88" x2="568.72" y2="520.51"/>
	<path class="st3" d="M585.93,162.28c4.54,4.16,7.8,10.92,9.67,16.62c3.62,11.05,5.93,22.51,6.88,34.09
		c0.88,10.77,0.46,21.64,0.46,32.45c0,9,0,18.01,0,27.01c0,11.57,0,23.15,0,34.72c0,13.09,0,26.17,0,39.26c0,13.54,0,27.08,0,40.63
		c0,12.94,0,25.88,0,38.82c0,11.28,0,22.56,0,33.84c0,8.56,0,17.13,0,25.69c0,4.79,0,9.58,0,14.37c0,0.65,0,1.3,0,1.94"/>
	<path class="st3" d="M414.44,339.71c2.52,20.19,5.04,40.37,7.56,60.56c0.33,2.68,0.67,5.38,1.48,7.96
		c1.02,3.27,2.76,6.26,4.57,9.17c8.05,12.94,18.39,25.36,32.56,30.98c13.43,5.33,28.55,3.89,42.62,7.13"/>
	<path class="st3" d="M450.63,320.72c2.02,6.96,4.43,13.56,5.65,20.75c1.4,8.22,2.05,16.54,3.04,24.81
		c1.13,9.41,2.85,19.1,8.22,26.91c7.21,10.49,20.41,16.01,33.13,15.57"/>
	<path class="st3" d="M434.01,336.94c1.81,16.9,2.6,34.42,6.98,50.9c4.25,16.02,13.36,31.78,28.27,39.02
		c9.99,4.85,21.46,5.39,32.56,5.85"/>
	<path class="st3" d="M676.92,244.77c-7.83,20.81-5.08,44.39-7.95,66.14c-0.86,6.5-2.15,13-4.78,19c-2.64,6-6.71,11.51-12.25,15.01
		c-7.46,4.72-15.63,4.36-23.87,6.27"/>
	<line class="st3" x1="595.23" y1="278.69" x2="614.61" y2="269.69"/>
	<path class="st3" d="M713.12,270.88c0.1,8.69-1.16,17.57-1.34,26.33c-0.2,9.49-0.22,18.99-1.02,28.46
		c-1.51,17.86-6.23,36.31-18.42,49.45c-15.22,16.4-37.84,20.44-59.07,22.79c-1.74,0.19-3.48,0.38-5.22,0.56"/>
	<line class="st3" x1="529.16" y1="287.1" x2="545.38" y2="280.77"/>
	<line class="st3" x1="594.88" y1="469.67" x2="615.06" y2="464.33"/>
	<path class="st3" d="M694.53,259.6c-1.75,13.54-2.55,26.96-3.36,40.58c-0.75,12.75-2.17,25.63-6.72,37.57
		c-4.55,11.93-12.54,22.96-23.83,28.95c-10.51,5.58-22.82,6.36-34.69,7.03"/>
</g>
<path id="trazo_teclado2_1_" class="st0" d="M215.93,606.49c-9.03-0.11-18.08-0.28-27.1-0.09c-9.84,0.21-19.94,1.62-28.48,6.5
	c-9.2,5.26-14.55,13.87-21.74,21.21c-3.68,3.76-7.1,7.82-10.67,11.7c-9.26,10.07-18.6,20.06-27.95,30.04
	c-10.63,11.34-21.3,22.66-31.98,33.96c-10.08,10.67-20.18,21.32-30.29,31.96c-7.62,8.02-15.24,16.04-22.88,24.04
	c-2.81,2.95-5.62,5.9-8.44,8.85c-1.09,1.15-1.69,2.67-1.67,4.25c0.07,4.77,2.95,14.31,23.61,18.74c0.42,0.09,0.86,0.14,1.3,0.14
	c0.28,0,0.56,0,0.84,0c0.83,0,1.66,0,2.49,0c1.36,0,2.72,0,4.08,0c1.87,0,3.74,0,5.62,0c2.37,0,4.73,0,7.1,0c2.84,0,5.68,0,8.52,0
	c3.3,0,6.59,0,9.89,0c3.73,0,7.47,0,11.2,0c4.15,0,8.31,0,12.46,0c4.55,0,9.11,0,13.66,0c4.94,0,9.87,0,14.81,0c5.3,0,10.6,0,15.9,0
	c5.65,0,11.29,0,16.94,0c5.97,0,11.95,0,17.92,0c6.28,0,12.56,0,18.84,0c6.57,0,13.14,0,19.71,0c6.84,0,13.68,0,20.53,0
	c7.09,0,14.19,0,21.28,0c7.33,0,14.66,0,21.99,0c7.54,0,15.09,0,22.63,0c7.74,0,15.48,0,23.22,0c7.92,0,15.84,0,23.76,0
	c8.08,0,16.16,0,24.24,0c8.22,0,16.44,0,24.66,0c8.34,0,16.69,0,25.03,0c8.45,0,16.9,0,25.35,0c8.54,0,17.07,0,25.61,0
	c8.6,0,17.21,0,25.81,0c8.65,0,17.3,0,25.95,0c8.68,0,17.36,0,26.05,0c8.69,0,17.39,0,26.08,0c8.69,0,17.37,0,26.06,0
	c8.66,0,17.32,0,25.99,0c8.62,0,17.24,0,25.86,0c8.56,0,17.11,0,25.67,0c8.48,0,16.95,0,25.43,0c8.38,0,16.75,0,25.13,0
	c8.26,0,16.52,0,24.78,0c8.12,0,16.25,0,24.37,0c7.97,0,15.94,0,23.9,0c7.79,0,15.59,0,23.38,0c7.6,0,15.21,0,22.81,0
	c7.39,0,14.79,0,22.18,0c7.16,0,14.33,0,21.49,0c6.92,0,13.83,0,20.75,0c6.65,0,13.3,0,19.95,0c6.37,0,12.73,0,19.1,0
	c6.06,0,12.13,0,18.19,0c5.74,0,11.48,0,17.23,0c5.4,0,10.81,0,16.21,0c5.04,0,10.09,0,15.13,0c4.67,0,9.33,0,14,0
	c4.27,0,8.54,0,12.82,0c3.86,0,7.72,0,11.57,0c3.43,0,6.85,0,10.28,0c2.97,0,5.95,0,8.92,0c2.5,0,5.01,0,7.51,0
	c2.01,0,4.04,0.07,6.05,0c6.04-0.21,11.97,0.19,17.99-0.87c5.67-1,11.22-2.94,16.02-6.12c2.73-1.81,5.22-4.03,7.17-6.67
	c1.08-1.46,2.02-3.13,2.07-4.94c0.06-2.51-1.59-4.74-3.41-6.47c-4.88-4.63-9.41-9.65-14.08-14.53c-4.77-4.99-9.53-9.97-14.3-14.96
	c-5.73-5.99-11.45-11.98-17.18-17.98c-6.32-6.61-12.63-13.22-18.95-19.82c-6.53-6.83-13.06-13.67-19.59-20.5
	c-6.37-6.67-12.75-13.34-19.12-20.01c-5.84-6.11-11.69-12.23-17.53-18.34c-8.62-8.62-16.87-17.64-25.28-26.46
	c-1.23-1.29-2.47-2.59-3.7-3.88c-1.53-1.6-3.06-3.21-4.83-4.56c-4.35-3.31-9.83-4.82-15.26-5.4c-4.94-0.53-9.94-0.39-14.91-0.51
	c-4.54-0.11-9.07-0.27-13.61-0.46c-4.41-0.19-8.82,0.33-13.21,0.66c-3.53,0.26-7.06,0.41-10.6,0.55c-5.11,0.2-10.23,0.34-15.34,0.47
	c-6.55,0.16-13.1,0.28-19.65,0.39c-7.85,0.13-15.69,0.23-23.54,0.32c-9,0.1-17.99,0.18-26.99,0.25c-10,0.08-20.01,0.14-30.01,0.19
	c-10.87,0.05-21.73,0.1-32.6,0.13c-11.59,0.04-23.17,0.06-34.76,0.08c-12.16,0.02-24.33,0.03-36.49,0.03c-12.6,0-25.2,0-37.79-0.01
	c-12.89-0.01-25.78-0.03-38.66-0.05c-13.03-0.02-26.07-0.05-39.1-0.08c-13.04-0.03-26.08-0.07-39.11-0.11
	c-12.9-0.04-25.8-0.08-38.69-0.13c-12.61-0.05-25.23-0.09-37.84-0.15c-12.19-0.05-24.38-0.1-36.56-0.16
	c-11.62-0.05-23.23-0.11-34.85-0.16c-10.9-0.05-21.81-0.11-32.71-0.17c-10.05-0.05-20.09-0.11-30.14-0.16
	c-9.05-0.05-18.09-0.1-27.14-0.16c-7.9-0.05-15.8-0.09-23.7-0.14c-6.61-0.04-13.23-0.08-19.84-0.12c-5.18-0.03-10.37-0.07-15.55-0.1
	c-3.61-0.02-7.22-0.05-10.83-0.07C220.23,606.54,218.08,606.51,215.93,606.49z"/>
<path id="trazo_teclado1_1_" class="st0" d="M1129.58,778.7c0.22,0.48,0.18,3.9,0.2,4.32c0.08,1.52,0.15,3.04,0.22,4.56
	c0.13,3.04,0.24,6.08,0.31,9.12c0.1,3.7,0.15,7.4,0.17,11.11c0,0.68-0.07,1.36-0.23,2.02c-0.31,1.31-0.67,2.58-1.22,3.82
	c-0.25,0.56-0.52,1.12-0.8,1.66c-4.24,8.06-11.99,13.9-20.45,17.45c-6.23,2.62-12.06,3.18-18.73,3.18
	c-7.6-0.02-15.19-0.04-22.79-0.06c-12.02-0.03-24.04-0.06-36.06-0.09c-15.87-0.04-31.75-0.07-47.62-0.11
	c-19.16-0.04-38.32-0.08-57.48-0.12c-21.87-0.05-43.74-0.09-65.62-0.13c-24.01-0.05-48.03-0.09-72.04-0.14
	c-25.59-0.05-51.18-0.09-76.76-0.13c-26.59-0.04-53.18-0.08-79.77-0.12c-27.02-0.04-54.05-0.07-81.07-0.11
	c-26.89-0.03-53.77-0.06-80.66-0.08c-26.18-0.02-52.36-0.04-78.54-0.05c-24.9-0.01-49.8-0.02-74.7-0.01
	c-23.05,0-46.11,0.01-69.16,0.03c-20.64,0.02-41.27,0.04-61.91,0.08c-17.65,0.03-35.29,0.08-52.94,0.14
	c-14.09,0.05-28.18,0.11-42.27,0.2c-5.53,0.04-11.06,0.08-16.6,0.13c-12.74,0.12-25.57,1.6-38.25,0.38c-5.55-0.53-11-2.02-15.88-4.7
	C5.36,823.59,4.96,813,4.89,800.62c-0.04-7.05-0.08-14.1-0.12-21.14c0.02,3.33,3.34,7.33,5.56,9.44c7.52,7.16,18.1,7.25,27.92,7.43
	c14.29,0.26,28.57-0.04,42.85-0.04c6.82,0,13.64,0,20.46,0c7.83,0,15.66,0,23.49,0c8.77,0,17.53,0,26.3,0c9.62,0,19.25,0,28.87,0
	c10.4,0,20.81,0,31.21,0c11.11,0,22.21,0,33.32,0c11.73,0,23.46,0,35.2,0c12.28,0,24.56,0,36.84,0c12.75,0,25.5,0,38.26,0
	c13.15,0,26.29,0,39.44,0c13.46,0,26.93,0,40.39,0c13.7,0,27.41,0,41.11,0c13.87,0,27.74,0,41.6,0c13.95,0,27.91,0,41.86,0
	c13.96,0,27.93,0,41.89,0c13.89,0,27.79,0,41.68,0c13.75,0,27.5,0,41.25,0c13.53,0,27.05,0,40.58,0c13.23,0,26.46,0,39.68,0
	c12.85,0,25.7,0,38.55,0c12.4,0,24.8,0,37.19,0c11.87,0,23.73,0,35.6,0c11.26,0,22.52,0,33.78,0c10.57,0,21.15,0,31.72,0
	c9.81,0,19.63,0,29.44,0c8.97,0,17.95,0,26.92,0c8.06,0,16.12,0,24.17,0c7.06,0,14.13,0,21.19,0c5.99,0,11.99,0,17.98,0
	c4.85,0,9.69,0,14.54,0c3.62,0,7.24,0,10.87,0c8.37,0,16.52,0.21,24.53-2.76c7.49-2.77,18.21-14.99,18.5-14.89
	C1129.55,778.66,1129.56,778.67,1129.58,778.7z"/>
<polygon class="st4" points="157.67,711.59 268.84,711.59 258.16,727.02 146.99,727.02 "/>
<polygon class="st4" points="174.66,691.39 165.31,703.11 273.1,703.58 280.22,691.42 "/>
<polygon class="st4" points="293.57,670.4 189.13,670.4 180.22,684.05 284.82,684.05 "/>
<path class="st4" d="M203.59,653.64l-7.49,10.16h100.54l6.33-9.87C302.96,653.93,203.36,653.87,203.59,653.64z"/>
<polygon class="st4" points="214.44,639.79 209.99,646.12 304.65,646.12 311.07,639.29 "/>
<polygon class="st4" points="229.58,625.15 222.46,631.28 272.9,631.28 278.63,625.25 "/>
<polygon class="st4" points="287.93,624.66 284.27,631.28 325.12,631.28 331.84,626.14 331.84,623.37 288.43,623.27 "/>
<polygon class="st4" points="342.45,624.11 382.21,624.11 377.02,632.49 339.78,632.49 "/>
<polygon class="st4" points="392.82,624.48 433.99,624.48 429.83,632.49 390.74,632.49 "/>
<polygon class="st4" points="446.34,624.08 490.93,624.08 489.3,631.78 444.55,631.78 "/>
<polygon class="st4" points="500.77,623.07 542.31,623.07 539.84,632.91 500.62,632.91 "/>
<polygon class="st4" points="551.86,623.59 593.54,623.59 593.62,631.98 552.08,631.98 "/>
<polygon class="st4" points="603.19,623.96 646.21,623.96 645.77,632.35 604.89,632.35 "/>
<polygon class="st4" points="655.66,624.06 700.26,624.06 704.12,632.67 659.02,632.67 "/>
<polygon class="st4" points="711.78,624.21 752.29,624.21 756.14,632.37 717.57,632.37 "/>
<polygon class="st4" points="763.93,624.04 805.69,624.04 808.59,631.46 803.17,632.64 767.12,632.64 "/>
<polygon class="st4" points="818.08,625.15 902.2,625.15 908.88,632.05 820.6,632.05 "/>
<polygon class="st4" points="322.65,640.8 312.11,656.16 383.18,656.16 390,640.73 "/>
<polygon class="st4" points="311.52,666.1 301.06,682.79 343.34,682.79 352.76,665.5 "/>
<polygon class="st4" points="367.55,665.06 406.91,665.06 397.81,684.15 359.19,684.15 "/>
<path class="st4" d="M420.56,665.5l-5.49,17.06h38.57l5.69-17.16C459.33,665.4,420.56,665.21,420.56,665.5z"/>
<polygon class="st4" points="474.46,665.11 510.96,665.11 507.1,684.49 469.22,684.49 "/>
<polygon class="st4" points="522.23,666.2 563.68,666.2 563.18,683.41 522.23,683.41 "/>
<polygon class="st4" points="403.55,639.94 449.39,639.94 445.14,656.16 397.81,656.16 "/>
<polygon class="st4" points="461.66,641.02 539.62,641.02 537.1,656.45 458.24,656.45 "/>
<polygon class="st4" points="551.34,639.69 595.77,639.69 596.36,656.97 552,656.97 "/>
<polygon class="st4" points="607,639.54 648.93,639.54 652.34,648 652.34,657 611.1,657 "/>
<polygon class="st4" points="661.29,639.44 703.92,639.44 715.94,656.12 666.5,656.12 "/>
<polygon class="st4" points="719.05,639.29 758.57,639.29 770.19,656.75 728.25,656.75 "/>
<polygon class="st4" points="771.13,639.64 804.8,639.64 818.65,657.39 780.87,657.39 "/>
<polygon class="st4" points="817.41,639.24 914.59,639.24 921.61,646.22 823.5,646.22 "/>
<polygon class="st4" points="829.53,654.82 927.35,654.82 935.8,664.17 835.51,664.17 "/>
<polygon class="st4" points="295.55,693.39 340.25,693.39 322.15,726.13 273.39,726.13 "/>
<polygon class="st4" points="354,693.89 408.4,693.89 394.85,726.03 336.89,726.03 "/>
<polygon class="st4" points="424.72,693.39 705.11,693.39 712.53,725.14 411.07,725.14 "/>
<polygon class="st4" points="719.5,693.39 774.98,693.39 789.08,726.48 729.44,726.48 "/>
<polygon class="st4" points="788.29,693.59 835.56,693.59 853.56,726.63 802.53,726.63 "/>
<polygon class="st4" points="859.3,712.29 870.08,727.22 986.24,727.22 975.12,711.79 "/>
<polygon class="st4" points="779.88,666.1 819.34,666.1 828.74,683.5 788.39,683.5 "/>
<polygon class="st4" points="576.04,665.7 613.82,665.7 616.69,682.71 577.03,682.71 "/>
<polygon class="st4" points="627.81,666.25 666.39,666.25 669.35,684.05 631.23,684.05 "/>
<polygon class="st4" points="678.9,666.29 717.17,666.29 723.01,684.1 682.46,684.1 "/>
<polygon class="st4" points="729.64,666.39 767.12,666.39 772.96,683.7 735.57,683.7 "/>
<polygon class="st4" points="835.66,670.7 943.96,670.7 953.16,684.79 842.34,684.79 "/>
<polygon class="st4" points="848.72,692.36 961.91,692.36 967.7,703.48 854.95,703.48 "/>
<polygon class="st5" points="438.96,737.6 697.1,737.6 708.67,784.49 423.23,784.49 "/>
</svg>
